<?xml version="1.0" standalone="no"?>
<!DOCTYPE svg PUBLIC "-//W3C//DTD SVG 20010904//EN"
 "http://www.w3.org/TR/2001/REC-SVG-20010904/DTD/svg10.dtd">
<svg version="1.0" xmlns="http://www.w3.org/2000/svg"
 width="5112.000000pt" height="4619.000000pt" viewBox="0 0 5112.000000 4619.000000"
 preserveAspectRatio="xMidYMid meet">

<g transform="translate(0.000000,4619.000000) scale(0.100000,-0.100000)"
fill="#000000" stroke="none">
<path d="M21536 41130 c-108 -14 -213 -39 -316 -77 -52 -19 -99 -39 -105 -43
-5 -4 -40 -17 -76 -29 -105 -35 -201 -105 -375 -278 -128 -128 -166 -172 -196
-229 -62 -117 -63 -205 -3 -293 18 -28 36 -70 40 -93 11 -65 53 -159 88 -195
45 -47 113 -67 206 -60 244 19 579 190 800 408 176 172 282 387 297 599 8 106
-5 158 -53 211 -70 77 -151 98 -307 79z"/>
<path d="M25089 40677 c-135 -38 -238 -154 -239 -268 0 -54 28 -101 80 -137
31 -21 44 -23 105 -20 117 8 225 80 276 184 27 56 23 140 -8 182 -44 59 -129
83 -214 59z"/>
<path d="M15245 38490 c-685 -57 -1313 -307 -1850 -736 -141 -113 -396 -368
-509 -509 -401 -502 -642 -1074 -722 -1720 -22 -171 -24 -565 -5 -735 88 -786
421 -1479 981 -2041 263 -264 529 -455 870 -624 317 -158 640 -259 1005 -316
201 -30 629 -38 845 -15 1037 113 1944 681 2500 1566 90 144 234 437 293 595
263 711 280 1512 47 2225 -242 742 -754 1394 -1421 1810 -142 90 -458 246
-604 300 -234 87 -517 155 -774 186 -156 18 -509 26 -656 14z"/>
<path d="M38540 37774 c-19 -2 -84 -9 -145 -15 -569 -56 -1159 -288 -1630
-639 -55 -41 -105 -79 -111 -85 -6 -5 -35 -30 -65 -54 -30 -25 -119 -110 -199
-190 -176 -177 -324 -357 -435 -530 -5 -9 -26 -40 -46 -71 -213 -329 -390
-798 -458 -1217 -35 -216 -44 -358 -38 -635 6 -286 21 -423 77 -670 126 -554
410 -1100 785 -1508 24 -26 57 -81 78 -130 21 -47 64 -134 96 -195 l58 -110
119 3 119 3 85 -61 c287 -208 659 -385 1012 -484 299 -83 513 -115 830 -123
424 -10 761 36 1131 157 l125 40 129 -46 c450 -163 840 -379 1078 -596 l57
-52 31 18 c44 23 189 128 289 208 316 251 598 577 793 917 27 46 48 90 48 97
0 7 3 11 7 9 4 -2 30 44 58 103 85 178 104 223 99 236 -3 7 4 21 15 30 11 10
17 24 14 32 -3 8 -2 14 2 14 4 0 13 14 19 30 6 17 8 28 4 26 -4 -3 -8 1 -8 9
0 8 5 13 11 12 6 -1 15 16 21 38 6 22 15 48 20 59 4 10 8 31 9 46 1 15 4 26 7
25 9 -6 31 93 23 106 -4 8 -3 9 4 5 15 -9 16 16 1 31 -8 8 -7 13 2 18 8 5 10
4 5 -3 -4 -7 -3 -12 2 -12 15 0 32 104 19 112 -6 4 -15 4 -21 1 -5 -3 -6 -1
-2 5 4 6 13 9 20 6 18 -7 31 15 17 29 -8 8 -7 15 3 26 8 9 17 41 20 72 4 31 9
67 11 80 10 53 25 178 27 219 4 171 1 441 -6 525 -4 55 -8 108 -8 118 1 9 -3
17 -8 17 -5 0 -7 7 -4 15 4 8 0 23 -7 32 -10 12 -10 15 -1 9 12 -7 17 6 5 17
-3 4 -7 26 -9 49 -2 24 -6 54 -10 68 -4 14 -6 31 -5 39 1 7 -2 11 -7 8 -4 -3
-6 7 -4 24 2 17 0 29 -7 29 -6 0 -8 6 -5 13 4 12 -37 189 -53 227 -10 24 -21
67 -22 88 -1 7 -5 11 -9 8 -4 -2 -8 5 -8 17 0 12 -13 57 -29 99 -25 66 -31 75
-45 65 -13 -11 -13 -10 -1 6 12 15 8 29 -29 115 -72 166 -143 293 -159 287
-11 -4 -11 -2 -3 8 9 10 8 18 -2 32 -11 16 -17 17 -29 7 -10 -9 -17 -10 -22
-2 -6 10 -5 11 18 14 16 2 11 21 -17 62 -12 19 -26 31 -31 26 -5 -4 -5 -2 -1
5 9 16 -23 65 -37 56 -6 -3 -7 -1 -3 5 8 13 -49 102 -64 102 -6 0 -9 4 -7 9 3
12 -94 143 -101 136 -3 -3 -11 6 -16 19 -6 14 -38 55 -71 92 -45 52 -72 95
-111 183 -254 571 -686 1079 -1211 1424 -444 292 -894 459 -1433 532 -109 15
-569 28 -650 19z m3450 -2219 c0 -2 -6 -8 -13 -14 -10 -8 -14 -7 -14 2 0 8 6
14 14 14 7 0 13 -1 13 -2z m271 -418 c-10 -9 -11 -8 -5 6 3 10 9 15 12 12 3
-3 0 -11 -7 -18z m-597 -2473 c3 -8 2 -12 -4 -9 -6 3 -10 10 -10 16 0 14 7 11
14 -7z m-193 -301 c13 -16 12 -17 -3 -4 -10 7 -18 15 -18 17 0 8 8 3 21 -13z
m1045 -105 c4 -7 3 -8 -4 -4 -7 4 -12 2 -12 -5 0 -7 -3 -10 -6 -6 -6 5 3 27
11 27 2 0 7 -5 11 -12z"/>
<path d="M8362 30925 c-62 -17 -65 -19 -197 -97 -191 -114 -247 -171 -330
-338 -52 -103 -72 -167 -86 -265 -26 -182 40 -320 186 -391 57 -27 67 -29 185
-29 112 0 131 3 188 27 267 111 432 348 432 619 0 129 -65 363 -116 420 -49
54 -171 79 -262 54z"/>
<path d="M9803 28241 c-147 -45 -260 -138 -326 -266 -57 -113 -44 -264 28
-311 14 -9 37 -40 51 -69 34 -69 92 -144 132 -172 71 -47 190 -37 288 24 33
21 47 37 53 63 33 125 85 453 97 612 l7 86 -44 23 c-62 31 -200 36 -286 10z"/>
<path d="M43291 28149 c-25 -5 -88 -22 -140 -39 l-96 -30 -86 -177 c-48 -98
-118 -228 -157 -289 -61 -97 -192 -287 -221 -321 -6 -6 -44 -52 -86 -102 -41
-50 -112 -130 -156 -179 -90 -98 -90 -99 -42 -199 54 -112 192 -223 338 -273
125 -43 351 -49 518 -15 259 54 514 201 679 392 154 178 238 416 238 673 0
247 -94 420 -275 507 -39 18 -102 40 -140 48 -77 16 -300 19 -374 4z"/>
<path d="M12686 22169 c-749 -48 -1441 -295 -2085 -743 -401 -279 -791 -689
-1060 -1112 -559 -884 -756 -1942 -550 -2968 127 -638 414 -1245 825 -1750 72
-89 111 -148 154 -235 604 -1225 1779 -2057 3145 -2227 175 -22 767 -26 800
-6 5 3 31 5 58 4 26 -1 47 2 47 6 0 4 24 7 53 8 68 1 218 24 212 33 -2 4 10 5
26 3 21 -3 35 1 45 14 9 11 12 13 8 5 -6 -11 -1 -13 27 -7 19 4 48 10 64 12
84 14 381 99 395 114 3 3 14 6 26 7 36 4 194 65 189 73 -3 4 3 7 13 6 10 0 16
5 14 14 -3 11 -1 12 8 4 13 -13 50 -7 50 8 0 5 5 6 10 3 6 -3 10 -1 10 5 0 6
3 9 8 6 4 -2 36 9 70 25 35 16 68 29 74 29 5 0 8 7 5 15 -4 8 -2 17 4 20 5 4
9 3 8 -2 -1 -4 -1 -11 0 -15 1 -10 103 42 119 61 9 11 11 11 6 2 -5 -10 2 -8
22 5 16 11 42 25 57 32 15 7 25 17 22 22 -3 5 0 7 8 5 13 -6 269 148 275 166
2 5 9 9 15 9 18 1 172 119 172 133 1 7 7 11 14 9 17 -4 62 38 55 49 -3 5 1 7
8 4 16 -6 191 143 183 156 -3 5 0 6 8 4 8 -4 70 53 160 146 129 132 146 153
135 168 -11 14 -11 14 3 4 13 -10 21 -5 52 32 20 24 37 46 37 48 0 3 13 19 30
37 16 18 27 36 24 41 -3 5 -1 8 4 7 18 -6 126 144 114 157 -4 5 -2 5 4 2 6 -4
41 39 81 101 82 124 106 169 98 182 -3 5 1 12 9 17 23 13 330 648 321 663 -3
5 -1 10 5 12 5 1 11 12 13 23 2 11 9 31 14 45 26 62 84 273 79 286 -3 9 -1 12
4 9 6 -4 11 7 12 24 2 51 3 56 10 61 3 3 8 19 11 35 5 27 19 96 33 163 3 18 1
22 -8 16 -11 -6 -11 -5 0 8 10 13 10 17 0 21 -8 4 -7 6 5 6 13 1 18 11 19 39
5 87 6 98 11 112 7 16 22 188 28 305 9 171 -4 595 -18 619 -4 6 -6 19 -4 30 2
13 -1 16 -11 10 -10 -6 -11 -5 -1 7 12 15 6 112 -7 104 -5 -3 -6 4 -3 15 3 11
-1 28 -8 37 -12 14 -12 16 0 8 11 -6 13 -4 7 11 -8 19 -13 49 -15 92 -1 13 -5
20 -11 17 -5 -3 -7 0 -4 9 8 20 -15 126 -33 155 -8 13 -11 21 -5 17 10 -6 -12
105 -24 125 -3 5 -7 17 -9 27 -6 34 -27 105 -37 131 -6 14 -12 32 -14 39 -17
86 -179 471 -197 472 -5 0 -6 4 -2 9 6 10 -14 61 -25 61 -3 0 -11 -5 -16 -10
-7 -7 -11 -6 -11 4 0 8 5 14 11 13 16 -3 11 12 -28 82 -20 34 -36 67 -36 72 0
10 -14 12 -23 2 -4 -3 -1 -13 6 -22 11 -14 10 -14 -6 -2 -13 11 -15 17 -6 28
9 10 9 20 -2 41 -24 47 -93 157 -101 160 -4 2 -8 9 -8 16 0 7 -11 25 -25 40
-14 15 -25 30 -25 34 0 5 -7 17 -15 27 -8 11 -35 48 -60 83 -25 35 -50 60 -55
57 -5 -3 -8 0 -5 7 3 7 -27 53 -67 102 -55 67 -98 139 -173 285 -211 412 -438
725 -749 1037 -303 302 -611 527 -1001 730 -646 335 -1379 489 -2109 443z
m4224 -2845 c0 -8 -19 -13 -24 -6 -3 5 1 9 9 9 8 0 15 -2 15 -3z m10 -258 c0
-2 -8 -10 -17 -17 -16 -13 -17 -12 -4 4 13 16 21 21 21 13z m40 -40 c0 -2 -8
-10 -17 -17 -16 -13 -17 -12 -4 4 13 16 21 21 21 13z m40 -520 c0 -2 -8 -10
-17 -17 -16 -13 -17 -12 -4 4 13 16 21 21 21 13z m40 -40 c0 -2 -8 -10 -17
-17 -16 -13 -17 -12 -4 4 13 16 21 21 21 13z m-40 -40 c0 -2 -8 -10 -17 -17
-16 -13 -17 -12 -4 4 13 16 21 21 21 13z m457 -271 c0 -8 -4 -12 -9 -9 -5 3
-6 10 -3 15 9 13 12 11 12 -6z m27 -43 c3 -5 -1 -9 -9 -9 -8 0 -12 4 -9 9 3 4
7 8 9 8 2 0 6 -4 9 -8z m66 -356 c0 -2 -7 -7 -16 -10 -8 -3 -12 -2 -9 4 6 10
25 14 25 6z m-679 -793 c13 -16 12 -17 -3 -4 -17 13 -22 21 -14 21 2 0 10 -8
17 -17z m-40 -40 c13 -16 12 -17 -3 -4 -17 13 -22 21 -14 21 2 0 10 -8 17 -17z
m-40 -200 c13 -16 12 -17 -3 -4 -17 13 -22 21 -14 21 2 0 10 -8 17 -17z m-40
-40 c13 -16 12 -17 -3 -4 -17 13 -22 21 -14 21 2 0 10 -8 17 -17z m-216 -442
c3 -5 2 -12 -3 -15 -5 -3 -9 1 -9 9 0 17 3 19 12 6z m855 -347 c0 -8 -19 -13
-24 -6 -3 5 1 9 9 9 8 0 15 -2 15 -3z m-1280 -290 c0 -8 -19 -13 -24 -6 -3 5
1 9 9 9 8 0 15 -2 15 -3z m947 -416 c2 -17 0 -19 -7 -8 -5 8 -6 18 -4 22 8 12
10 10 11 -14z m-1418 -81 c8 -10 7 -14 -2 -14 -8 0 -14 6 -14 14 0 7 1 13 2
13 2 0 8 -6 14 -13z m-44 -16 c3 -5 2 -12 -3 -15 -5 -3 -9 1 -9 9 0 17 3 19
12 6z m-21 -29 c3 -5 -1 -9 -9 -9 -8 0 -12 4 -9 9 3 4 7 8 9 8 2 0 6 -4 9 -8z
m-43 -39 c13 -16 12 -17 -3 -4 -17 13 -22 21 -14 21 2 0 10 -8 17 -17z m-51
-47 c0 -2 -8 -10 -17 -17 -16 -13 -17 -12 -4 4 13 16 21 21 21 13z m34 -57
c-3 -5 -10 -7 -15 -3 -5 3 -7 10 -3 15 3 5 10 7 15 3 5 -3 7 -10 3 -15z
m-3644 -663 c0 -2 -7 -7 -16 -10 -8 -3 -12 -2 -9 4 6 10 25 14 25 6z m1885
-106 c3 -5 1 -10 -4 -10 -6 0 -11 5 -11 10 0 6 2 10 4 10 3 0 8 -4 11 -10z
m-720 -738 c-3 -3 -11 0 -18 7 -9 10 -8 11 6 5 10 -3 15 -9 12 -12z m1670
-111 c3 -5 2 -12 -3 -15 -5 -3 -9 1 -9 9 0 17 3 19 12 6z"/>
<path d="M32355 17893 c-850 -71 -1563 -307 -2253 -746 -147 -92 -347 -235
-440 -314 -37 -31 -87 -72 -111 -92 -67 -54 -93 -79 -256 -240 -372 -369 -616
-692 -860 -1141 -750 -1375 -778 -3063 -76 -4470 158 -317 353 -622 555 -869
35 -44 92 -135 136 -220 604 -1157 1674 -2038 2920 -2405 275 -81 552 -137
845 -171 189 -22 675 -31 875 -16 1046 80 1985 462 2790 1135 117 98 403 379
514 506 780 889 1206 2019 1206 3200 0 699 -150 1388 -441 2019 -54 119 -116
230 -134 243 -5 4 -7 8 -2 8 8 0 -30 80 -39 80 -3 0 -3 -4 1 -9 3 -5 1 -12 -4
-16 -6 -3 -8 4 -6 16 3 12 -5 35 -16 50 -11 16 -17 29 -12 29 4 0 2 4 -6 9 -8
5 -16 16 -17 24 -3 25 -54 98 -64 92 -5 -3 -7 0 -5 7 5 13 -90 170 -106 176
-5 2 -9 9 -9 15 0 7 -11 24 -25 39 -14 15 -25 30 -25 33 0 8 -118 166 -139
185 -31 30 -60 78 -126 211 -218 434 -527 858 -891 1223 -817 818 -1874 1306
-3039 1406 -109 9 -642 11 -740 3z m4892 -2998 c0 -8 -4 -12 -9 -9 -5 3 -6 10
-3 15 9 13 12 11 12 -6z m48 -104 c3 -5 2 -12 -3 -15 -5 -3 -9 1 -9 9 0 17 3
19 12 6z m86 -188 c13 -16 12 -17 -3 -4 -17 13 -22 21 -14 21 2 0 10 -8 17
-17z m-32 -77 c9 -11 9 -16 -1 -22 -7 -4 -10 -4 -6 1 4 4 3 14 -3 22 -6 7 -9
13 -6 13 2 0 10 -6 16 -14z"/>
</g>
</svg>
